<svg xmlns="http://www.w3.org/2000/svg" xmlns:xlink="http://www.w3.org/1999/xlink" version="1.1" width="256" height="256" viewBox="0 0 256 256" xml:space="preserve">

<defs>
</defs>
<g style="stroke: none; stroke-width: 0; stroke-dasharray: none; stroke-linecap: butt; stroke-linejoin: miter; stroke-miterlimit: 10; fill: currentColor; fill-rule: nonzero; opacity: 1;" transform="translate(1.4065934065934016 1.4065934065934016) scale(2.81 2.81)" >
	<path d="M 85.164 29.251 l -8.833 -6.797 V 8.626 c 0 -1.947 -1.584 -3.532 -3.531 -3.532 H 67.3 c -1.947 0 -3.532 1.585 -3.532 3.532 v 4.161 l -14.92 -11.48 c -2.266 -1.743 -5.43 -1.743 -7.695 0 L 4.835 29.251 c -0.848 0.652 -1.173 1.729 -0.829 2.742 c 0.345 1.013 1.259 1.668 2.33 1.668 h 7.333 v 50.136 c 0 3.421 2.783 6.203 6.203 6.203 h 50.256 c 3.42 0 6.202 -2.782 6.202 -6.203 V 33.661 h 7.334 c 1.07 0 1.984 -0.655 2.329 -1.668 C 86.338 30.979 86.013 29.903 85.164 29.251 z M 65.768 8.626 c 0 -0.845 0.688 -1.532 1.532 -1.532 H 72.8 c 0.845 0 1.531 0.687 1.531 1.532 v 12.289 l -8.563 -6.589 V 8.626 z M 74.331 83.797 c 0 2.317 -1.885 4.203 -4.202 4.203 H 19.872 c -2.317 0 -4.203 -1.886 -4.203 -4.203 V 33.661 h 58.662 V 83.797 z M 84.101 31.349 c -0.04 0.117 -0.149 0.312 -0.436 0.312 H 6.336 c -0.287 0 -0.396 -0.195 -0.436 -0.312 c -0.04 -0.117 -0.072 -0.338 0.155 -0.513 L 42.372 2.892 C 43.146 2.297 44.073 1.999 45 1.999 c 0.927 0 1.855 0.298 2.629 0.893 l 36.316 27.943 C 84.173 31.011 84.14 31.232 84.101 31.349 z" style="stroke: none; stroke-width: 1; stroke-dasharray: none; stroke-linecap: butt; stroke-linejoin: miter; stroke-miterlimit: 10; fill-rule: nonzero; opacity: 1;" transform=" matrix(1 0 0 1 0 0) " stroke-linecap="round" />
	<path d="M 60.471 42.258 c -0.146 -0.357 -0.485 -0.598 -0.871 -0.619 c -0.407 -0.026 -0.749 0.183 -0.933 0.521 c -2.358 4.347 -3.862 6.303 -14.763 7.113 C 35.473 49.5 30.501 55.147 29.45 60.298 c -0.795 3.895 0.533 7.481 3.511 9.916 c -1.93 2.365 -3.702 5.019 -5.303 7.97 c -0.264 0.485 -0.083 1.092 0.402 1.355 c 0.152 0.082 0.315 0.121 0.476 0.121 c 0.355 0 0.699 -0.189 0.88 -0.523 c 1.57 -2.893 3.308 -5.486 5.2 -7.787 c 0.347 0.198 0.703 0.388 1.079 0.561 c 0.013 0.006 0.026 0.012 0.04 0.018 c 3.266 1.326 6.383 1.984 9.271 1.984 c 4.427 0 8.311 -1.547 11.355 -4.603 C 62.505 63.14 64.274 51.51 60.471 42.258 z M 54.943 67.9 c -4.484 4.501 -10.859 5.257 -18.435 2.185 c -0.193 -0.089 -0.376 -0.185 -0.56 -0.281 c 3.241 -3.566 6.904 -6.316 10.961 -8.209 c 0.02 -0.009 0.037 -0.017 0.057 -0.026 l 7.246 1.065 c 0.05 0.008 0.099 0.011 0.146 0.011 c 0.488 0 0.915 -0.357 0.988 -0.855 c 0.08 -0.547 -0.298 -1.055 -0.844 -1.135 l -4.286 -0.63 c 4.568 -2.307 7.034 -4.354 8.4 -7.904 c 0.198 -0.516 -0.059 -1.095 -0.574 -1.293 c -0.517 -0.196 -1.094 0.059 -1.293 0.574 c -1.28 3.329 -3.673 5.207 -10.675 8.375 c -2.069 0.965 -4.035 2.143 -5.902 3.516 l -0.443 -6.135 c -0.04 -0.551 -0.5 -0.962 -1.07 -0.925 c -0.551 0.039 -0.965 0.519 -0.925 1.069 l 0.54 7.477 c -1.404 1.182 -2.742 2.492 -4.018 3.917 c -2.442 -1.97 -3.496 -4.82 -2.847 -8 c 0.898 -4.401 5.208 -9.228 12.596 -9.426 c 9.873 -0.733 12.88 -2.472 15.326 -6.281 C 61.874 53.158 60.129 62.692 54.943 67.9 z" style="stroke: none; stroke-width: 1; stroke-dasharray: none; stroke-linecap: butt; stroke-linejoin: miter; stroke-miterlimit: 10; fill-rule: nonzero; opacity: 1;" transform=" matrix(1 0 0 1 0 0) " stroke-linecap="round" />
</g>
</svg>