<svg width="24" height="24" viewBox="0 0 24 24" fill="none" xmlns="http://www.w3.org/2000/svg">
<path fill-rule="evenodd" clip-rule="evenodd" d="M9.877 15.2063C6.033 15.2063 2.75 15.7873 2.75 18.1153C2.75 20.4433 6.013 21.0453 9.877 21.0453C13.722 21.0453 17.004 20.4633 17.004 18.1363C17.004 15.8093 13.742 15.2063 9.877 15.2063Z" stroke="black" stroke-width="1.5" stroke-linecap="round" stroke-linejoin="round"/>
<path fill-rule="evenodd" clip-rule="evenodd" d="M9.87562 11.886C12.3986 11.886 14.4436 9.84102 14.4436 7.31802C14.4436 4.79502 12.3986 2.75002 9.87562 2.75002C7.35362 2.75002 5.30862 4.79502 5.30862 7.31802C5.29962 9.83202 7.32962 11.877 9.84462 11.886H9.87562Z" stroke="black" stroke-width="1.5" stroke-linecap="round" stroke-linejoin="round"/>
<path d="M19.2031 8.66922V12.6792" stroke="black" stroke-width="1.5" stroke-linecap="round" stroke-linejoin="round"/>
<path d="M21.2502 10.6741H17.1602" stroke="black" stroke-width="1.5" stroke-linecap="round" stroke-linejoin="round"/>
</svg>
