<svg width="24" height="24" viewBox="0 0 24 24" fill="none" xmlns="http://www.w3.org/2000/svg">
<path fill-rule="evenodd" clip-rule="evenodd" d="M21.21 7.89932V16.0503C21.21 19.0703 19.32 21.2003 16.3 21.2003H7.65C4.63 21.2003 2.75 19.0703 2.75 16.0503V7.89932C2.75 4.87932 4.64 2.75032 7.65 2.75032H16.3C19.32 2.75032 21.21 4.87932 21.21 7.89932Z" stroke="black" stroke-width="1.5" stroke-linecap="round" stroke-linejoin="round"/>
<path d="M5.28125 16.431L6.80925 14.818C7.34025 14.255 8.22525 14.228 8.78925 14.758C8.80625 14.775 9.72625 15.71 9.72625 15.71C10.2813 16.275 11.1883 16.284 11.7533 15.73C11.7903 15.694 14.0872 12.908 14.0872 12.908C14.6792 12.189 15.7422 12.086 16.4622 12.679C16.5102 12.719 18.6803 14.946 18.6803 14.946" stroke="black" stroke-width="1.5" stroke-linecap="round" stroke-linejoin="round"/>
<path fill-rule="evenodd" clip-rule="evenodd" d="M10.3127 9.13322C10.3127 10.1022 9.52769 10.8872 8.55869 10.8872C7.58969 10.8872 6.80469 10.1022 6.80469 9.13322C6.80469 8.16422 7.58969 7.37922 8.55869 7.37922C9.52769 7.38022 10.3127 8.16422 10.3127 9.13322Z" stroke="black" stroke-width="1.5" stroke-linecap="round" stroke-linejoin="round"/>
</svg>
