<svg width="28" height="37" viewBox="0 0 28 37" xmlns="http://www.w3.org/2000/svg">
<path d="M12.143 35.3623C1.90109 20.5145 0 18.9907 0 13.5339C0 6.05932 6.05932 0 13.5339 0C21.0085 0 27.0678 6.05932 27.0678 13.5339C27.0678 18.9907 25.1667 20.5145 14.9248 35.3623C14.2527 36.3332 12.8151 36.3331 12.143 35.3623ZM13.5339 19.1731C16.6483 19.1731 19.1731 16.6483 19.1731 13.5339C19.1731 10.4195 16.6483 7.89479 13.5339 7.89479C10.4195 7.89479 7.89479 10.4195 7.89479 13.5339C7.89479 16.6483 10.4195 19.1731 13.5339 19.1731Z"/>
</svg>