<svg width="24" height="24" viewBox="0 0 24 24" fill="none" xmlns="http://www.w3.org/2000/svg">
<path fill-rule="evenodd" clip-rule="evenodd" d="M20.8054 7.62369L20.183 6.5436C19.6564 5.62968 18.4895 5.3144 17.5743 5.8388V5.8388C17.1387 6.09542 16.6189 6.16823 16.1295 6.04117C15.6401 5.9141 15.2214 5.5976 14.9656 5.16145C14.8011 4.88423 14.7127 4.56847 14.7093 4.24612V4.24612C14.7242 3.7293 14.5292 3.22848 14.1688 2.85775C13.8084 2.48702 13.3133 2.27794 12.7963 2.27815H11.5423C11.0357 2.27815 10.5501 2.47999 10.1928 2.83902C9.83547 3.19805 9.63595 3.68467 9.63839 4.1912V4.1912C9.62338 5.237 8.77126 6.07689 7.72535 6.07678C7.40299 6.07343 7.08724 5.98502 6.81001 5.82049V5.82049C5.89484 5.29609 4.72789 5.61137 4.20132 6.52529L3.53313 7.62369C3.00719 8.53647 3.31818 9.70268 4.22878 10.2324V10.2324C4.82068 10.5741 5.18531 11.2057 5.18531 11.8891C5.18531 12.5726 4.82068 13.2042 4.22878 13.5459V13.5459C3.31934 14.072 3.00801 15.2354 3.53313 16.1454V16.1454L4.1647 17.2347C4.41143 17.6799 4.82538 18.0084 5.31497 18.1475C5.80456 18.2867 6.32942 18.225 6.7734 17.9761V17.9761C7.20986 17.7214 7.72997 17.6516 8.21812 17.7823C8.70627 17.9129 9.12201 18.2331 9.37294 18.6717C9.53748 18.949 9.62589 19.2647 9.62924 19.5871V19.5871C9.62924 20.6436 10.4857 21.5001 11.5423 21.5001H12.7963C13.8493 21.5001 14.7043 20.6492 14.7093 19.5962V19.5962C14.7069 19.0881 14.9076 18.6001 15.2669 18.2408C15.6262 17.8815 16.1143 17.6807 16.6224 17.6832C16.944 17.6918 17.2584 17.7798 17.5377 17.9395V17.9395C18.4505 18.4654 19.6167 18.1544 20.1464 17.2438V17.2438L20.8054 16.1454C21.0605 15.7076 21.1305 15.1861 21 14.6965C20.8694 14.2068 20.549 13.7894 20.1098 13.5367V13.5367C19.6705 13.284 19.3502 12.8667 19.2196 12.377C19.089 11.8874 19.159 11.3659 19.4141 10.928C19.58 10.6384 19.8202 10.3983 20.1098 10.2324V10.2324C21.0149 9.70297 21.3252 8.54357 20.8054 7.63285V7.63285V7.62369Z" stroke="black" stroke-width="1.5" stroke-linecap="round" stroke-linejoin="round"/>
<circle cx="12.1752" cy="11.8891" r="2.63616" stroke="black" stroke-width="1.5" stroke-linecap="round" stroke-linejoin="round"/>
</svg>
