<svg width="24" height="24" viewBox="0 0 24 24" fill="none" xmlns="http://www.w3.org/2000/svg">
<path d="M19.3238 9.46832C19.3238 9.46832 18.7808 16.2033 18.4658 19.0403C18.3158 20.3953 17.4788 21.1893 16.1078 21.2143C13.4988 21.2613 10.8868 21.2643 8.27881 21.2093C6.95981 21.1823 6.13681 20.3783 5.98981 19.0473C5.67281 16.1853 5.13281 9.46832 5.13281 9.46832" stroke="currentColor" stroke-width="1.5" stroke-linecap="round" stroke-linejoin="round"/>
<path d="M20.708 6.23982H3.75" stroke="currentColor" stroke-width="1.5" stroke-linecap="round" stroke-linejoin="round"/>
<path d="M17.4386 6.23982C16.6536 6.23982 15.9776 5.68482 15.8236 4.91582L15.5806 3.69982C15.4306 3.13882 14.9226 2.75082 14.3436 2.75082H10.1106C9.53163 2.75082 9.02363 3.13882 8.87363 3.69982L8.63063 4.91582C8.47663 5.68482 7.80063 6.23982 7.01562 6.23982" stroke="currentColor" stroke-width="1.5" stroke-linecap="round" stroke-linejoin="round"/>
</svg>